<svg id="Layer_1" data-name="Layer 1" xmlns="http://www.w3.org/2000/svg" viewBox="0 0 100 100"><defs><style>.cls-1{fill:#fff;}</style></defs><title>instagram</title><path class="cls-1" d="M50,100a50,50,0,1,1,50-50A50.06,50.06,0,0,1,50,100ZM50,4.84A45.16,45.16,0,1,0,95.15,50,45.21,45.21,0,0,0,50,4.84Z" transform="translate(0)"/><path class="cls-1" d="M50,22.83c3.95,0,7.89,0,11.84,0a14.85,14.85,0,0,1,9.8,3.39,14.28,14.28,0,0,1,5.07,8.05,17.09,17.09,0,0,1,.44,3.7q.06,12,0,24A15,15,0,0,1,62.1,77.15c-8.07,0-16.14.06-24.21,0a14.64,14.64,0,0,1-13.2-7.8,14.2,14.2,0,0,1-1.84-7.25c0-8.06-.06-16.12,0-24.17a14.66,14.66,0,0,1,7.82-13.24A14.41,14.41,0,0,1,38,22.83Zm0,49.5H61.89A10.22,10.22,0,0,0,72.33,62c0-24,0-16,0-24a9.79,9.79,0,0,0-.91-4.36,9.94,9.94,0,0,0-9.41-6c-8-.05-16,0-24,0a10,10,0,0,0-6.85,2.54,10.14,10.14,0,0,0-3.47,7.93q0,11.52,0,23c0,.58,0,1.16.06,1.74a9.89,9.89,0,0,0,4.58,7.79,10.08,10.08,0,0,0,5.82,1.66Z" transform="translate(0)"/><path class="cls-1" d="M50,64A14,14,0,1,1,64,50,14,14,0,0,1,50,64Zm0-4.82A9.17,9.17,0,1,0,40.83,50,9.2,9.2,0,0,0,50,59.16Z" transform="translate(0)"/><path class="cls-1" d="M64.61,39a3.52,3.52,0,1,1,3.51-3.51A3.55,3.55,0,0,1,64.61,39Z" transform="translate(0)"/></svg>