<svg id="Layer_1" data-name="Layer 1" xmlns="http://www.w3.org/2000/svg" viewBox="0 0 100 100"><defs><style>.cls-1{fill:#fff;}</style></defs><title>linkedin</title><path class="cls-1" d="M53.05,42.81a12.27,12.27,0,0,1,5.19-4.27c4.88-2.12,11.3-.7,14.36,3.2a12.49,12.49,0,0,1,2.64,7.45c.14,3.72.1,7.45.12,11.18s0,7.36,0,11c0,.8-.21,1.08-1,1.07-2.81,0-5.62,0-8.43,0-.8,0-1-.28-1-1,0-5.46,0-10.92,0-16.38a17.22,17.22,0,0,0-.44-3.93,4.8,4.8,0,0,0-4.54-4c-2.51-.2-4.67.49-6,2.81a8.46,8.46,0,0,0-1,4.29q0,8.47,0,17c0,1.25,0,1.25-1.23,1.25-2.63,0-5.25,0-7.87,0-.74,0-1-.22-1-1q0-15.93,0-31.86c0-.79.25-1,1-1q4.05.06,8.11,0c.76,0,1,.26,1,1,0,1,0,2.09,0,3.14Z" transform="translate(0)"/><path class="cls-1" d="M25.61,55.48c0-5.26,0-10.53,0-15.8,0-.81.21-1.07,1-1.06,2.84.05,5.68,0,8.51,0,.71,0,1,.21,1,.92q0,16,0,32c0,.66-.24.9-.9.89-2.89,0-5.78,0-8.67,0-.72,0-.92-.22-.92-.93C25.62,66.18,25.61,60.83,25.61,55.48Z" transform="translate(0)"/><path class="cls-1" d="M30.79,34.17A6.23,6.23,0,1,1,37,28,6.16,6.16,0,0,1,30.79,34.17Z" transform="translate(0)"/><path class="cls-1" d="M50,100a50,50,0,1,1,50-50A50.06,50.06,0,0,1,50,100ZM50,4.84A45.16,45.16,0,1,0,95.15,50,45.21,45.21,0,0,0,50,4.84Z" transform="translate(0)"/></svg>