<svg id="Layer_1" data-name="Layer 1" xmlns="http://www.w3.org/2000/svg" viewBox="0 0 100 100"><defs><style>.cls-1{fill:#fff;}</style></defs><title>pinterest</title><path class="cls-1" d="M50,100a50,50,0,1,1,50-50A50.06,50.06,0,0,1,50,100ZM50,4.84A45.16,45.16,0,1,0,95.15,50,45.21,45.21,0,0,0,50,4.84Z" transform="translate(0)"/><path class="cls-1" d="M51.23,22.47C31.58,22.47,21.15,35.66,21.15,50c0,6.68,3.56,15,9.24,17.62.87.42,1.31.22,1.53-.61.15-.63.9-3.7,1.25-5.14a1.37,1.37,0,0,0-.3-1.32,17.6,17.6,0,0,1-3.39-10.38c0-10,7.59-19.75,20.53-19.75,11.19,0,19,7.61,19,18.5,0,12.32-6.22,20.85-14.31,20.85-4.46,0-7.8-3.68-6.73-8.22,1.29-5.41,3.78-11.26,3.78-15.16C51.77,42.92,49.89,40,46,40c-4.56,0-8.22,4.73-8.22,11.06a16.37,16.37,0,0,0,1.37,6.76S34.6,76.88,33.8,80.44s-.61,8.31-.27,11.87l3.76,1.34a48.81,48.81,0,0,0,5.12-11c.56-2.12,2.82-10.82,2.82-10.82,1.49,2.82,5.83,5.24,10.44,5.24,13.72,0,23.62-12.63,23.62-28.31C79.29,33.73,67,22.47,51.23,22.47Z" transform="translate(0)"/></svg>