<svg id="Layer_1" data-name="Layer 1" xmlns="http://www.w3.org/2000/svg" viewBox="0 0 100 100"><defs><style>.cls-1{fill:#fff;}</style></defs><title>twitter</title><path class="cls-1" d="M50,0A50,50,0,1,1,0,50,50.06,50.06,0,0,1,50,0Zm0,95.16A45.16,45.16,0,1,0,4.84,50,45.2,45.2,0,0,0,50,95.16Z" transform="translate(0)"/><g id="layer1"><path id="path1009" class="cls-1" d="M75.21,73.71,55.65,47.56,75.33,26.29H70.9L53.67,44.91,39.74,26.29H24.67L45.33,53.92,27,73.71h4.43L47.31,56.56,60.13,73.71Zm-6.52-3.26H61.77L31.18,29.55h6.93Z" transform="translate(0)"/></g></svg>